# xmcd
#
# Track frame offsets: 
#        150
#        13922
#        27442
#        40417
#        53197
#        65700
#        79225
#        90257
#        103282
#        115175
#        127045
#        140152
#        153847
#        167800
#        181560
#        196617
#        208227
#        220470
#        234445
#        248000
#        261370
#        274877
#        287292
#        299740
#
# Disc length: 4178 seconds
#
# Revision: 0
# Processed by: cddbd v1.5.1PL0 Copyright (c) Steve Scherf et al.
# Submitted via: ExactAudioCopy v0.95b2
#
DISCID=6d105018
DTITLE=Various Artist - Georgia Tom - Complete Recorded Works Vol. 1 (Septemb
DTITLE=er 1928 - 5 February 1930)
DYEAR=1900
DGENRE=
TTITLE0=Foster and Harris - Crow Jane Alley
TTITLE1=Georgia Tom - Lonesome Man Blues
TTITLE2=Georgia Tom - Grievin' Me Blues
TTITLE3=Georgia Tom - Long Ago Blues
TTITLE4=Georgia Tom - Beedle Um Bum
TTITLE5=The Hokum Boys - I Had to Give Up Gym
TTITLE6=The Hokum Boys - Pat-A-Foot Blues
TTITLE7=The Hokum Boys - Only the Blues
TTITLE8=The Hokum Boys - We Don't Sell It Here No More
TTITLE9=The Hokum Boys - You Ain't Livin' Right
TTITLE10=Georgia Tom - Eagle Ridin' Papa
TTITLE11=Georgia Tom - Rollin' Mill Stomp
TTITLE12=Georgia Tom - My Texas Blues
TTITLE13=Georgia Tom - Broke Man's Blues
TTITLE14=Georgia Tom - All Alone Blues
TTITLE15=Georgia Tom - Suicide Blues
TTITLE16=Georgia Tom - Somebody's Been Usin' That Thing No. 2 (New Usi
TTITLE16=ng That Thing-Blues)
TTITLE17=Georgia Tom - Pig Meat Blues
TTITLE18=Memphis Mose - Pig Meat Papa
TTITLE19=Memphis Mose - Hear Me Beefin' at You
TTITLE20=Memphis Mose - Tomorrow Blues
TTITLE21=Georgia Tom - Billie the Grinder
TTITLE22=Georgia Tom - Blue Moanin' Blues
TTITLE23=Georgia Tom - Dark Hour Blues
EXTD=
EXTT0=
EXTT1=
EXTT2=
EXTT3=
EXTT4=
EXTT5=
EXTT6=
EXTT7=
EXTT8=
EXTT9=
EXTT10=
EXTT11=
EXTT12=
EXTT13=
EXTT14=
EXTT15=
EXTT16=
EXTT17=
EXTT18=
EXTT19=
EXTT20=
EXTT21=
EXTT22=
EXTT23=
PLAYORDER=
